<svg width="89" height="28" viewBox="0 0 89 28" fill="none" xmlns="http://www.w3.org/2000/svg">
<path d="M28.5 1H31.875V28H28.5V15.625H3.75V28H0.375V1H3.75V12.8125H28.5V1ZM38.985 7.75H42.36V28H38.985V7.75ZM42.36 4.375H38.985V1H42.36V4.375ZM55.095 10.3164V28H51.72V10.3164H48.345V7.75H51.72V7.57422C51.72 6.20312 51.8723 5.06055 52.177 4.14648C52.4817 3.23242 52.9856 2.5 53.6888 1.94922C54.3919 1.39844 55.3177 1.01172 56.4661 0.789062C57.6263 0.554688 59.0501 0.4375 60.7376 0.4375H64.6575V3.25H60.72C59.6536 3.25 58.763 3.27344 58.0481 3.32031C57.3333 3.36719 56.7532 3.52539 56.3079 3.79492C55.8743 4.06445 55.5638 4.49219 55.3763 5.07812C55.1888 5.66406 55.095 6.49609 55.095 7.57422V7.75H64.6575V10.3164H55.095ZM68.3925 7.75H88.6425V10.5625L71.7323 25.4863H88.6425V28H67.2675V25.1875L84.4238 10.2285H68.3925V7.75Z" fill="#0CCC0C"/>
</svg>
